<?xml version="1.0" standalone="no"?>
<svg
  width="600"
  height="600"
  viewBox="0 0 600 600"
  xmlns="http://www.w3.org/2000/svg"
>
  <g transform="translate(300,300)">
    <path d="M99.2,-137.2C141.2,-106,196.6,-94,218,-62.7C239.3,-31.4,226.7,19.1,199.4,52.9C172,86.8,130.1,104.1,94.4,123.7C58.8,143.2,29.4,165.1,-8.5,176.8C-46.4,188.6,-92.9,190.2,-139.5,174.1C-186.1,158.1,-232.8,124.5,-254.2,78.1C-275.5,31.6,-271.4,-27.6,-250.1,-77.7C-228.9,-127.7,-190.6,-168.6,-146,-199C-101.5,-229.4,-50.7,-249.2,-11.1,-233.9C28.6,-218.7,57.2,-168.4,99.2,-137.2Z" fill="#8ed1fc" />
  </g>
</svg>
  